# xmcd CD database file
#
# Track frame offsets:
#	150
#	18539
#	41150
#	53467
#	75636
#	99809
#	121070
#	143382
#	162093
#	177032
#
# Disc length: 3064 seconds
#
# Revision: 3
# Processed by: cddbd v1.5.2PL0 Copyright (c) Steve Scherf et al.
# Submitted via: CDex 1.70beta2
#
DISCID=670bf60a
DTITLE=Crispy Watkins - And It Will Move
DYEAR=2011
DGENRE=Blues
TTITLE0=The Canal Song
TTITLE1=Old Bones Spiritual
TTITLE2=Graveyards
TTITLE3=Sorry Jack
TTITLE4=Rio
TTITLE5=Dunno My Baby (Live @ The Mountain)
TTITLE6=Liza Ray
TTITLE7=Secret Smile
TTITLE8=Lazy Jayne
TTITLE9=Ballad of the Clover
EXTD=YEAR: 2011
EXTT0=
EXTT1=
EXTT2=
EXTT3=
EXTT4=
EXTT5=
EXTT6=
EXTT7=
EXTT8=
EXTT9=
PLAYORDER=
